<?xml version="1.0" encoding="UTF-8"?>
<!-- Generated by Pixelmator Pro 3.7 -->
<svg width="160" height="28" viewBox="0 0 160 28" xmlns="http://www.w3.org/2000/svg">
    <path id="White" fill="#ffffff" fill-rule="evenodd" stroke="none" d="M 154 2 L 156 3 L 157 4 L 158 6 L 158 22 L 157 24 L 156 25 L 154 26 L 6 26 L 4 25 L 3 24 L 2 22 L 2 6 L 3 4 L 4 3 L 6 2 L 154 2 Z"/>
    <g id="Inner">
        <path id="Rectangle" fill="#000000" fill-rule="evenodd" stroke="none" d="M 4 21 L 5 21 L 5 7 L 4 7 Z"/>
        <path id="Rectangle-copy-2" fill="#000000" fill-rule="evenodd" stroke="none" d="M 155 21 L 156 21 L 156 7 L 155 7 Z"/>
        <path id="Path" fill="#000000" fill-rule="evenodd" stroke="none" d="M 5 7 L 5 5 L 7 5 L 7 6 L 6 6 L 6 7 L 5 7 Z"/>
        <path id="Path-copy" fill="#000000" fill-rule="evenodd" stroke="none" d="M 5 21 L 5 23 L 7 23 L 7 22 L 6 22 L 6 21 L 5 21 Z"/>
        <path id="Path-copy-3" fill="#000000" fill-rule="evenodd" stroke="none" d="M 155 7 L 155 5 L 153 5 L 153 6 L 154 6 L 154 7 L 155 7 Z"/>
        <path id="Path-copy-2" fill="#000000" fill-rule="evenodd" stroke="none" d="M 155 21 L 155 23 L 153 23 L 153 22 L 154 22 L 154 21 L 155 21 Z"/>
        <path id="path1" fill="#000000" fill-rule="evenodd" stroke="none" d="M 7 5 L 153 5 L 153 4 L 7 4 Z"/>
        <path id="Rectangle-copy" fill="#000000" fill-rule="evenodd" stroke="none" d="M 7 24 L 153 24 L 153 23 L 7 23 Z"/>
    </g>
    <path id="Outer" fill="#000000" fill-rule="evenodd" stroke="none" d="M 0 23 L -3 23 L -3 31 L 5 31 L 5 28 L 0 28 L 0 23 Z M 0 5 L 0 23 L 1 23 L 1 25 L 2 25 L 2 26 L 3 26 L 3 27 L 5 27 L 5 28 L 155 28 L 155 27 L 157 27 L 157 26 L 158 26 L 158 25 L 159 25 L 159 23 L 160 23 L 160 5 L 159 5 L 159 3 L 158 3 L 158 2 L 157 2 L 157 1 L 155 1 L 155 0 L 5 0 L 5 1 L 3 1 L 3 2 L 2 2 L 2 3 L 1 3 L 1 5 L 0 5 Z M 0 5 L 0 0 L 5 0 L 5 -3 L -3 -3 L -3 5 L 0 5 Z M 155 0 L 155 -3 L 163 -3 L 163 5 L 160 5 L 160 0 L 155 0 Z M 160 23 L 163 23 L 163 31 L 155 31 L 155 28 L 160 28 L 160 23 Z M 4 6 L 3 6 L 3 22 L 4 22 L 4 24 L 6 24 L 6 25 L 154 25 L 154 24 L 156 24 L 156 22 L 157 22 L 157 6 L 156 6 L 156 4 L 154 4 L 154 3 L 6 3 L 6 4 L 4 4 L 4 6 Z"/>
</svg>
