<?xml version="1.0" encoding="UTF-8"?><svg id="a" xmlns="http://www.w3.org/2000/svg" viewBox="0 0 14 14"><defs><style>.d{fill:#fff;}</style></defs><rect id="b" class="d" x="0" y="0" width="14" height="14"/><g id="c"><rect x="13" y="6" width="1" height="1"/><rect x="12" y="7" width="1" height="1"/><rect x="11" y="8" width="1" height="1"/><rect x="10" y="9" width="1" height="1"/><rect x="9" y="10" width="1" height="1"/><rect x="8" y="11" width="1" height="1"/><rect x="12" y="5" width="1" height="1"/><rect x="11" y="4" width="1" height="1"/><rect x="10" y="3" width="1" height="1"/><rect x="9" y="2" width="1" height="1"/><rect x="8" y="1" width="1" height="1"/><polyline points="8 13 7 13 7 10 3 10 3 3 7 3 7 0 8 0 8 4 4 4 4 9 8 9"/></g></svg>