<?xml version="1.0" encoding="UTF-8"?><svg id="a" xmlns="http://www.w3.org/2000/svg" viewBox="0 0 14 14"><defs><style>.d{fill:#fff;}</style></defs><rect id="b" class="d" x="0" y="0" width="14" height="14"/><g id="c"><rect x="0" y="6" width="1" height="1"/><rect x="1" y="7" width="1" height="1"/><rect x="2" y="8" width="1" height="1"/><rect x="3" y="9" width="1" height="1"/><rect x="4" y="10" width="1" height="1"/><rect x="5" y="11" width="1" height="1"/><rect x="1" y="5" width="1" height="1"/><rect x="2" y="4" width="1" height="1"/><rect x="3" y="3" width="1" height="1"/><rect x="4" y="2" width="1" height="1"/><rect x="5" y="1" width="1" height="1"/><polyline points="6 13 7 13 7 10 11 10 11 3 7 3 7 0 6 0 6 4 10 4 10 9 6 9"/></g></svg>