<?xml version="1.0" encoding="UTF-8"?><svg id="a" xmlns="http://www.w3.org/2000/svg" viewBox="0 0 14 14"><defs><style>.d{fill:#fff;}</style></defs><rect id="b" class="d" x="0" y="0" width="14" height="14"/><g id="c"><rect x="6" y="1" width="1" height="1"/><rect x="5" y="2" width="1" height="1"/><rect x="4" y="3" width="1" height="1"/><rect x="3" y="4" width="1" height="1"/><rect x="2" y="5" width="1" height="1"/><rect x="1" y="6" width="1" height="1"/><rect x="7" y="2" width="1" height="1"/><rect x="8" y="3" width="1" height="1"/><rect x="9" y="4" width="1" height="1"/><rect x="10" y="5" width="1" height="1"/><rect x="11" y="6" width="1" height="1"/><polyline points="0 7 0 8 3 8 3 12 10 12 10 8 13 8 13 7 9 7 9 11 4 11 4 7"/></g></svg>