<?xml version="1.0" encoding="UTF-8"?><svg id="a" xmlns="http://www.w3.org/2000/svg" viewBox="0 0 160 28"><defs><style>.e{fill:#fff;}.e,.f{fill-rule:evenodd;}</style></defs><path id="b" class="e" d="M154,2l2,1,1,1,1,2v16l-1,2-1,1-2,1H6l-2-1-1-1-1-2V6l1-2,1-1,2-1h148Z"/><path id="c" class="f" d="M0,23h-3v8H5v-3H0v-5ZM0,5v18h1v2h1v1h1v1h2v1h150v-1h2v-1h1v-1h1v-2h1V5h-1v-2h-1v-1h-1v-1h-2V0H5v1h-2v1h-1v1h-1v2H0ZM0,5V0h5v-3H-3V5H0ZM155,0v-3h8V5h-3V0h-5ZM160,23h3v8h-8v-3h5v-5ZM4,6h-1v16h1v2h2v1h148v-1h2v-2h1V6h-1v-2h-2v-1H6v1h-2v2Z"/><polygon id="d" class="f" points="5 7 5 21 6 21 6 22 7 22 7 23 153 23 153 22 154 22 154 21 155 21 155 7 154 7 154 6 153 6 153 5 7 5 7 6 6 6 6 7 5 7"/></svg>