<?xml version="1.0" encoding="UTF-8"?><svg id="a" xmlns="http://www.w3.org/2000/svg" viewBox="0 0 160 28"><defs><style>.m{fill:#fff;}.m,.n{fill-rule:evenodd;}</style></defs><path id="b" class="m" d="M154,2l2,1,1,1,1,2v16l-1,2-1,1-2,1H6l-2-1-1-1-1-2V6l1-2,1-1,2-1h148Z"/><g id="c"><path id="d" class="n" d="M4,21h1V7h-1v14Z"/><path id="e" class="n" d="M155,21h1V7h-1v14Z"/><path id="f" class="n" d="M5,7v-2h2v1h-1v1h-1Z"/><path id="g" class="n" d="M5,21v2h2v-1h-1v-1h-1Z"/><path id="h" class="n" d="M155,7v-2h-2v1h1v1h1Z"/><path id="i" class="n" d="M155,21v2h-2v-1h1v-1h1Z"/><path id="j" class="n" d="M7,5h146v-1H7v1Z"/><path id="k" class="n" d="M7,24h146v-1H7v1Z"/></g><path id="l" class="n" d="M0,23h-3v8H5v-3H0v-5ZM0,5v18h1v2h1v1h1v1h2v1h150v-1h2v-1h1v-1h1v-2h1V5h-1v-2h-1v-1h-1v-1h-2V0H5v1h-2v1h-1v1h-1v2H0ZM0,5V0h5v-3H-3V5H0ZM155,0v-3h8V5h-3V0h-5ZM160,23h3v8h-8v-3h5v-5ZM4,6h-1v16h1v2h2v1h148v-1h2v-2h1V6h-1v-2h-2v-1H6v1h-2v2Z"/></svg>