<?xml version="1.0" encoding="UTF-8"?><svg id="a" xmlns="http://www.w3.org/2000/svg" viewBox="0 0 1 11"><defs><style>.b{fill:#fff;}</style></defs><rect class="b" x="0" width="1" height="1"/><polygon points="1 0 0 0 0 1 1 1 1 0 1 0"/><rect class="b" x="0" y="2" width="1" height="1"/><polygon points="1 2 0 2 0 3 1 3 1 2 1 2"/><rect class="b" x="0" y="4" width="1" height="1"/><polygon points="1 4 0 4 0 5 1 5 1 4 1 4"/><rect class="b" y="6" width="1" height="1"/><polygon points="1 6 0 6 0 7 1 7 1 6 1 6"/><rect class="b" y="8" width="1" height="1"/><polygon points="1 8 0 8 0 9 1 9 1 8 1 8"/><rect class="b" y="10" width="1" height="1"/><polygon points="1 10 0 10 0 11 1 11 1 10 1 10"/></svg>